# xmcd
#
# Track frame offsets:
#	150
#	10562
#	23038
#	34798
#	52652
#	65715
#	81676
#	96296
#	110713
#	126730
#	141985
#	153222
#
# Disc length: 2171 seconds
#
# Revision: 0
# Processed by: cddbd v1.5.1PL2 Copyright (c) Steve Scherf et al.
# Submitted via: dBpowerAMP V4.0
#
DISCID=a308790c
DTITLE=Phil Humphrey and The Fendermen - That Was Then...This Is Now
DYEAR=2005
DGENRE=Country
TTITLE0=Mule Skinner Blues
TTITLE1=Don't You Just Know It
TTITLE2=Mule Skinner Blues 2005
TTITLE3=You Really Know Me
TTITLE4=Don't Cry No More
TTITLE5=One Woman Man
TTITLE6=Call On Me
TTITLE7=Yield Not To Temptation
TTITLE8=Little Things Mean A Lot
TTITLE9=Turn On Your Love Light
TTITLE10=Just For A Thrill
TTITLE11=We're All The Way
EXTD=
EXTT0=
EXTT1=
EXTT2=
EXTT3=
EXTT4=
EXTT5=
EXTT6=
EXTT7=
EXTT8=
EXTT9=
EXTT10=
EXTT11=
PLAYORDER=
